<svg viewBox="-16 -32 880 192" width="880" height="192" xmlns="http://www.w3.org/2000/svg"><desc>Generated with https://github.com/Platane/snk</desc><style>:root{--cb:#1b1f230a;--cs:#FFFF00;--ce:#DC143C;--c0:#DC143C;--c1:#FF2400;--c2:#FF7F50;--c3:#800000;--c4:#FF6961}.c{shape-rendering:geometricPrecision;fill:var(--ce);stroke-width:1px;stroke:var(--cb);animation:none 31500ms linear infinite;width:12px;height:12px}@keyframes c0{86.66%{fill:var(--c4)}86.68%,100%{fill:var(--ce)}}.c.c0{fill:var(--c4);animation-name:c0}@keyframes c1{71.1%{fill:var(--c2)}71.12%,100%{fill:var(--ce)}}.c.c1{fill:var(--c2);animation-name:c1}@keyframes c2{72.05%{fill:var(--c3)}72.07%,100%{fill:var(--ce)}}.c.c2{fill:var(--c3);animation-name:c2}@keyframes c3{84.12%{fill:var(--c4)}84.14%,100%{fill:var(--ce)}}.c.c3{fill:var(--c4);animation-name:c3}@keyframes c4{85.7%{fill:var(--c4)}85.72%,100%{fill:var(--ce)}}.c.c4{fill:var(--c4);animation-name:c4}@keyframes c5{2.21%{fill:var(--c1)}2.23%,100%{fill:var(--ce)}}.c.c5{fill:var(--c1);animation-name:c5}@keyframes c6{2.85%{fill:var(--c1)}2.87%,100%{fill:var(--ce)}}.c.c6{fill:var(--c1);animation-name:c6}@keyframes c7{3.8%{fill:var(--c1)}3.82%,100%{fill:var(--ce)}}.c.c7{fill:var(--c1);animation-name:c7}@keyframes c8{4.12%{fill:var(--c1)}4.14%,100%{fill:var(--ce)}}.c.c8{fill:var(--c1);animation-name:c8}@keyframes c9{80.62%{fill:var(--c4)}80.64%,100%{fill:var(--ce)}}.c.c9{fill:var(--c4);animation-name:c9}@keyframes ca{66.66%{fill:var(--c2)}66.68%,100%{fill:var(--ce)}}.c.ca{fill:var(--c2);animation-name:ca}@keyframes cb{66.97%{fill:var(--c2)}66.99%,100%{fill:var(--ce)}}.c.cb{fill:var(--c2);animation-name:cb}@keyframes cc{67.61%{fill:var(--c2)}67.63%,100%{fill:var(--ce)}}.c.cc{fill:var(--c2);animation-name:cc}@keyframes cd{6.97%{fill:var(--c1)}6.99%,100%{fill:var(--ce)}}.c.cd{fill:var(--c1);animation-name:cd}@keyframes ce{6.66%{fill:var(--c1)}6.68%,100%{fill:var(--ce)}}.c.ce{fill:var(--c1);animation-name:ce}@keyframes cf{6.34%{fill:var(--c1)}6.36%,100%{fill:var(--ce)}}.c.cf{fill:var(--c1);animation-name:cf}@keyframes cg{6.02%{fill:var(--c1)}6.04%,100%{fill:var(--ce)}}.c.cg{fill:var(--c1);animation-name:cg}@keyframes ch{5.7%{fill:var(--c1)}5.72%,100%{fill:var(--ce)}}.c.ch{fill:var(--c1);animation-name:ch}@keyframes ci{74.91%{fill:var(--c3)}74.93%,100%{fill:var(--ce)}}.c.ci{fill:var(--c3);animation-name:ci}@keyframes cj{79.67%{fill:var(--c3)}79.69%,100%{fill:var(--ce)}}.c.cj{fill:var(--c3);animation-name:cj}@keyframes ck{65.39%{fill:var(--c2)}65.41%,100%{fill:var(--ce)}}.c.ck{fill:var(--c2);animation-name:ck}@keyframes cl{81.89%{fill:var(--c4)}81.91%,100%{fill:var(--ce)}}.c.cl{fill:var(--c4);animation-name:cl}@keyframes cm{5.39%{fill:var(--c1)}5.41%,100%{fill:var(--ce)}}.c.cm{fill:var(--c1);animation-name:cm}@keyframes cn{5.07%{fill:var(--c1)}5.09%,100%{fill:var(--ce)}}.c.cn{fill:var(--c1);animation-name:cn}@keyframes co{13.01%{fill:var(--c1)}13.03%,100%{fill:var(--ce)}}.c.co{fill:var(--c1);animation-name:co}@keyframes cp{64.75%{fill:var(--c2)}64.77%,100%{fill:var(--ce)}}.c.cp{fill:var(--c2);animation-name:cp}@keyframes cq{65.07%{fill:var(--c2)}65.09%,100%{fill:var(--ce)}}.c.cq{fill:var(--c2);animation-name:cq}@keyframes cr{9.51%{fill:var(--c1)}9.53%,100%{fill:var(--ce)}}.c.cr{fill:var(--c1);animation-name:cr}@keyframes cs{9.83%{fill:var(--c1)}9.85%,100%{fill:var(--ce)}}.c.cs{fill:var(--c1);animation-name:cs}@keyframes ct{12.69%{fill:var(--c1)}12.71%,100%{fill:var(--ce)}}.c.ct{fill:var(--c1);animation-name:ct}@keyframes cu{8.56%{fill:var(--c1)}8.58%,100%{fill:var(--ce)}}.c.cu{fill:var(--c1);animation-name:cu}@keyframes cv{8.88%{fill:var(--c1)}8.9%,100%{fill:var(--ce)}}.c.cv{fill:var(--c1);animation-name:cv}@keyframes cw{9.2%{fill:var(--c1)}9.22%,100%{fill:var(--ce)}}.c.cw{fill:var(--c1);animation-name:cw}@keyframes cx{10.47%{fill:var(--c1)}10.49%,100%{fill:var(--ce)}}.c.cx{fill:var(--c1);animation-name:cx}@keyframes cy{10.78%{fill:var(--c1)}10.8%,100%{fill:var(--ce)}}.c.cy{fill:var(--c1);animation-name:cy}@keyframes cz{11.74%{fill:var(--c1)}11.76%,100%{fill:var(--ce)}}.c.cz{fill:var(--c1);animation-name:cz}@keyframes c10{11.1%{fill:var(--c1)}11.12%,100%{fill:var(--ce)}}.c.c10{fill:var(--c1);animation-name:c10}@keyframes c11{76.5%{fill:var(--c3)}76.52%,100%{fill:var(--ce)}}.c.c11{fill:var(--c3);animation-name:c11}@keyframes c12{91.42%{fill:var(--c4)}91.44%,100%{fill:var(--ce)}}.c.c12{fill:var(--c4);animation-name:c12}@keyframes c13{15.23%{fill:var(--c1)}15.25%,100%{fill:var(--ce)}}.c.c13{fill:var(--c1);animation-name:c13}@keyframes c14{93.01%{fill:var(--c4)}93.03%,100%{fill:var(--ce)}}.c.c14{fill:var(--c4);animation-name:c14}@keyframes c15{20.31%{fill:var(--c1)}20.33%,100%{fill:var(--ce)}}.c.c15{fill:var(--c1);animation-name:c15}@keyframes c16{60.62%{fill:var(--c2)}60.64%,100%{fill:var(--ce)}}.c.c16{fill:var(--c2);animation-name:c16}@keyframes c17{15.86%{fill:var(--c1)}15.88%,100%{fill:var(--ce)}}.c.c17{fill:var(--c1);animation-name:c17}@keyframes c18{15.55%{fill:var(--c1)}15.57%,100%{fill:var(--ce)}}.c.c18{fill:var(--c1);animation-name:c18}@keyframes c19{17.13%{fill:var(--c1)}17.15%,100%{fill:var(--ce)}}.c.c19{fill:var(--c1);animation-name:c19}@keyframes c1a{19.99%{fill:var(--c1)}20.01%,100%{fill:var(--ce)}}.c.c1a{fill:var(--c1);animation-name:c1a}@keyframes c1b{59.67%{fill:var(--c2)}59.69%,100%{fill:var(--ce)}}.c.c1b{fill:var(--c2);animation-name:c1b}@keyframes c1c{16.18%{fill:var(--c1)}16.2%,100%{fill:var(--ce)}}.c.c1c{fill:var(--c1);animation-name:c1c}@keyframes c1d{61.58%{fill:var(--c2)}61.6%,100%{fill:var(--ce)}}.c.c1d{fill:var(--c2);animation-name:c1d}@keyframes c1e{54.91%{fill:var(--c1)}54.93%,100%{fill:var(--ce)}}.c.c1e{fill:var(--c1);animation-name:c1e}@keyframes c1f{54.59%{fill:var(--c1)}54.61%,100%{fill:var(--ce)}}.c.c1f{fill:var(--c1);animation-name:c1f}@keyframes c1g{55.55%{fill:var(--c1)}55.57%,100%{fill:var(--ce)}}.c.c1g{fill:var(--c1);animation-name:c1g}@keyframes c1h{24.75%{fill:var(--c1)}24.77%,100%{fill:var(--ce)}}.c.c1h{fill:var(--c1);animation-name:c1h}@keyframes c1i{31.1%{fill:var(--c1)}31.12%,100%{fill:var(--ce)}}.c.c1i{fill:var(--c1);animation-name:c1i}@keyframes c1j{31.74%{fill:var(--c1)}31.76%,100%{fill:var(--ce)}}.c.c1j{fill:var(--c1);animation-name:c1j}@keyframes c1k{53.96%{fill:var(--c1)}53.98%,100%{fill:var(--ce)}}.c.c1k{fill:var(--c1);animation-name:c1k}@keyframes c1l{25.39%{fill:var(--c1)}25.41%,100%{fill:var(--ce)}}.c.c1l{fill:var(--c1);animation-name:c1l}@keyframes c1m{30.15%{fill:var(--c1)}30.17%,100%{fill:var(--ce)}}.c.c1m{fill:var(--c1);animation-name:c1m}@keyframes c1n{30.47%{fill:var(--c1)}30.49%,100%{fill:var(--ce)}}.c.c1n{fill:var(--c1);animation-name:c1n}@keyframes c1o{32.37%{fill:var(--c1)}32.39%,100%{fill:var(--ce)}}.c.c1o{fill:var(--c1);animation-name:c1o}@keyframes c1p{53.32%{fill:var(--c1)}53.34%,100%{fill:var(--ce)}}.c.c1p{fill:var(--c1);animation-name:c1p}@keyframes c1q{25.7%{fill:var(--c1)}25.72%,100%{fill:var(--ce)}}.c.c1q{fill:var(--c1);animation-name:c1q}@keyframes c1r{32.69%{fill:var(--c1)}32.71%,100%{fill:var(--ce)}}.c.c1r{fill:var(--c1);animation-name:c1r}@keyframes c1s{26.02%{fill:var(--c1)}26.04%,100%{fill:var(--ce)}}.c.c1s{fill:var(--c1);animation-name:c1s}@keyframes c1t{29.51%{fill:var(--c1)}29.53%,100%{fill:var(--ce)}}.c.c1t{fill:var(--c1);animation-name:c1t}@keyframes c1u{33.32%{fill:var(--c1)}33.34%,100%{fill:var(--ce)}}.c.c1u{fill:var(--c1);animation-name:c1u}@keyframes c1v{52.37%{fill:var(--c1)}52.39%,100%{fill:var(--ce)}}.c.c1v{fill:var(--c1);animation-name:c1v}@keyframes c1w{52.69%{fill:var(--c1)}52.71%,100%{fill:var(--ce)}}.c.c1w{fill:var(--c1);animation-name:c1w}@keyframes c1x{26.34%{fill:var(--c1)}26.36%,100%{fill:var(--ce)}}.c.c1x{fill:var(--c1);animation-name:c1x}@keyframes c1y{29.2%{fill:var(--c1)}29.22%,100%{fill:var(--ce)}}.c.c1y{fill:var(--c1);animation-name:c1y}@keyframes c1z{26.66%{fill:var(--c1)}26.68%,100%{fill:var(--ce)}}.c.c1z{fill:var(--c1);animation-name:c1z}@keyframes c20{28.88%{fill:var(--c1)}28.9%,100%{fill:var(--ce)}}.c.c20{fill:var(--c1);animation-name:c20}@keyframes c21{26.97%{fill:var(--c1)}26.99%,100%{fill:var(--ce)}}.c.c21{fill:var(--c1);animation-name:c21}@keyframes c22{50.47%{fill:var(--c1)}50.49%,100%{fill:var(--ce)}}.c.c22{fill:var(--c1);animation-name:c22}@keyframes c23{34.28%{fill:var(--c1)}34.3%,100%{fill:var(--ce)}}.c.c23{fill:var(--c1);animation-name:c23}@keyframes c24{51.1%{fill:var(--c1)}51.12%,100%{fill:var(--ce)}}.c.c24{fill:var(--c1);animation-name:c24}@keyframes c25{51.42%{fill:var(--c1)}51.44%,100%{fill:var(--ce)}}.c.c25{fill:var(--c1);animation-name:c25}@keyframes c26{28.24%{fill:var(--c1)}28.26%,100%{fill:var(--ce)}}.c.c26{fill:var(--c1);animation-name:c26}@keyframes c27{34.59%{fill:var(--c1)}34.61%,100%{fill:var(--ce)}}.c.c27{fill:var(--c1);animation-name:c27}@keyframes c28{34.91%{fill:var(--c1)}34.93%,100%{fill:var(--ce)}}.c.c28{fill:var(--c1);animation-name:c28}@keyframes c29{27.61%{fill:var(--c1)}27.63%,100%{fill:var(--ce)}}.c.c29{fill:var(--c1);animation-name:c29}@keyframes c2a{35.23%{fill:var(--c1)}35.25%,100%{fill:var(--ce)}}.c.c2a{fill:var(--c1);animation-name:c2a}@keyframes c2b{35.55%{fill:var(--c1)}35.57%,100%{fill:var(--ce)}}.c.c2b{fill:var(--c1);animation-name:c2b}@keyframes c2c{36.18%{fill:var(--c1)}36.2%,100%{fill:var(--ce)}}.c.c2c{fill:var(--c1);animation-name:c2c}@keyframes c2d{48.24%{fill:var(--c1)}48.26%,100%{fill:var(--ce)}}.c.c2d{fill:var(--c1);animation-name:c2d}@keyframes c2e{47.61%{fill:var(--c1)}47.63%,100%{fill:var(--ce)}}.c.c2e{fill:var(--c1);animation-name:c2e}@keyframes c2f{37.45%{fill:var(--c1)}37.47%,100%{fill:var(--ce)}}.c.c2f{fill:var(--c1);animation-name:c2f}@keyframes c2g{38.09%{fill:var(--c1)}38.11%,100%{fill:var(--ce)}}.c.c2g{fill:var(--c1);animation-name:c2g}@keyframes c2h{38.4%{fill:var(--c1)}38.42%,100%{fill:var(--ce)}}.c.c2h{fill:var(--c1);animation-name:c2h}@keyframes c2i{39.04%{fill:var(--c1)}39.06%,100%{fill:var(--ce)}}.c.c2i{fill:var(--c1);animation-name:c2i}@keyframes c2j{39.36%{fill:var(--c1)}39.38%,100%{fill:var(--ce)}}.c.c2j{fill:var(--c1);animation-name:c2j}@keyframes c2k{46.66%{fill:var(--c1)}46.68%,100%{fill:var(--ce)}}.c.c2k{fill:var(--c1);animation-name:c2k}@keyframes c2l{46.34%{fill:var(--c1)}46.36%,100%{fill:var(--ce)}}.c.c2l{fill:var(--c1);animation-name:c2l}@keyframes c2m{41.58%{fill:var(--c1)}41.6%,100%{fill:var(--ce)}}.c.c2m{fill:var(--c1);animation-name:c2m}@keyframes c2n{45.07%{fill:var(--c1)}45.09%,100%{fill:var(--ce)}}.c.c2n{fill:var(--c1);animation-name:c2n}@keyframes c2o{43.16%{fill:var(--c1)}43.18%,100%{fill:var(--ce)}}.c.c2o{fill:var(--c1);animation-name:c2o}.u{transform-origin:0 0;transform:scale(0,1);animation:none linear 31500ms infinite}@keyframes u0{2.21%{transform:scale(0.000,1)}2.23%,2.85%{transform:scale(0.013,1)}2.87%,3.8%{transform:scale(0.026,1)}3.82%,4.12%{transform:scale(0.039,1)}4.14%,5.07%{transform:scale(0.053,1)}5.09%,5.39%{transform:scale(0.066,1)}5.41%,5.7%{transform:scale(0.079,1)}5.72%,6.02%{transform:scale(0.092,1)}6.04%,6.34%{transform:scale(0.105,1)}6.36%,6.66%{transform:scale(0.118,1)}6.68%,6.97%{transform:scale(0.132,1)}6.99%,8.56%{transform:scale(0.145,1)}8.58%,8.88%{transform:scale(0.158,1)}8.9%,9.2%{transform:scale(0.171,1)}9.22%,9.51%{transform:scale(0.184,1)}9.53%,9.83%{transform:scale(0.197,1)}9.85%,10.47%{transform:scale(0.211,1)}10.49%,10.78%{transform:scale(0.224,1)}10.8%,11.1%{transform:scale(0.237,1)}11.12%,11.74%{transform:scale(0.250,1)}11.76%,12.69%{transform:scale(0.263,1)}12.71%,13.01%{transform:scale(0.276,1)}13.03%,15.23%{transform:scale(0.289,1)}15.25%,15.55%{transform:scale(0.303,1)}15.57%,15.86%{transform:scale(0.316,1)}15.88%,16.18%{transform:scale(0.329,1)}16.2%,17.13%{transform:scale(0.342,1)}17.15%,19.99%{transform:scale(0.355,1)}20.01%,20.31%{transform:scale(0.368,1)}20.33%,24.75%{transform:scale(0.382,1)}24.77%,25.39%{transform:scale(0.395,1)}25.41%,25.7%{transform:scale(0.408,1)}25.72%,26.02%{transform:scale(0.421,1)}26.04%,26.34%{transform:scale(0.434,1)}26.36%,26.66%{transform:scale(0.447,1)}26.68%,26.97%{transform:scale(0.461,1)}26.99%,27.61%{transform:scale(0.474,1)}27.63%,28.24%{transform:scale(0.487,1)}28.26%,28.88%{transform:scale(0.500,1)}28.9%,29.2%{transform:scale(0.513,1)}29.22%,29.51%{transform:scale(0.526,1)}29.53%,30.15%{transform:scale(0.539,1)}30.17%,30.47%{transform:scale(0.553,1)}30.49%,31.1%{transform:scale(0.566,1)}31.12%,31.74%{transform:scale(0.579,1)}31.76%,32.37%{transform:scale(0.592,1)}32.39%,32.69%{transform:scale(0.605,1)}32.71%,33.32%{transform:scale(0.618,1)}33.34%,34.28%{transform:scale(0.632,1)}34.3%,34.59%{transform:scale(0.645,1)}34.61%,34.91%{transform:scale(0.658,1)}34.93%,35.23%{transform:scale(0.671,1)}35.25%,35.55%{transform:scale(0.684,1)}35.57%,36.18%{transform:scale(0.697,1)}36.2%,37.45%{transform:scale(0.711,1)}37.47%,38.09%{transform:scale(0.724,1)}38.11%,38.4%{transform:scale(0.737,1)}38.42%,39.04%{transform:scale(0.750,1)}39.06%,39.36%{transform:scale(0.763,1)}39.38%,41.58%{transform:scale(0.776,1)}41.6%,43.16%{transform:scale(0.789,1)}43.18%,45.07%{transform:scale(0.803,1)}45.09%,46.34%{transform:scale(0.816,1)}46.36%,46.66%{transform:scale(0.829,1)}46.68%,47.61%{transform:scale(0.842,1)}47.63%,48.24%{transform:scale(0.855,1)}48.26%,50.47%{transform:scale(0.868,1)}50.49%,51.1%{transform:scale(0.882,1)}51.12%,51.42%{transform:scale(0.895,1)}51.44%,52.37%{transform:scale(0.908,1)}52.39%,52.69%{transform:scale(0.921,1)}52.71%,53.32%{transform:scale(0.934,1)}53.34%,53.96%{transform:scale(0.947,1)}53.98%,54.59%{transform:scale(0.961,1)}54.61%,54.91%{transform:scale(0.974,1)}54.93%,55.55%{transform:scale(0.987,1)}55.57%,100%{transform:scale(1.000,1)}}.u.u0{fill:var(--c1);animation-name:u0;transform-origin:0.0px 0}@keyframes u1{59.67%{transform:scale(0.000,1)}59.69%,60.62%{transform:scale(0.100,1)}60.64%,61.58%{transform:scale(0.200,1)}61.6%,64.75%{transform:scale(0.300,1)}64.77%,65.07%{transform:scale(0.400,1)}65.09%,65.39%{transform:scale(0.500,1)}65.41%,66.66%{transform:scale(0.600,1)}66.68%,66.97%{transform:scale(0.700,1)}66.99%,67.61%{transform:scale(0.800,1)}67.63%,71.1%{transform:scale(0.900,1)}71.12%,100%{transform:scale(1.000,1)}}.u.u1{fill:var(--c2);animation-name:u1;transform-origin:664.4px 0}@keyframes u2{72.05%{transform:scale(0.000,1)}72.07%,74.91%{transform:scale(0.250,1)}74.93%,76.5%{transform:scale(0.500,1)}76.52%,79.67%{transform:scale(0.750,1)}79.69%,100%{transform:scale(1.000,1)}}.u.u2{fill:var(--c3);animation-name:u2;transform-origin:751.8px 0}@keyframes u3{80.62%{transform:scale(0.000,1)}80.64%,81.89%{transform:scale(0.143,1)}81.91%,84.12%{transform:scale(0.286,1)}84.14%,85.7%{transform:scale(0.429,1)}85.72%,86.66%{transform:scale(0.571,1)}86.68%,91.42%{transform:scale(0.714,1)}91.44%,93.01%{transform:scale(0.857,1)}93.03%,100%{transform:scale(1.000,1)}}.u.u3{fill:var(--c4);animation-name:u3;transform-origin:786.8px 0}.s{shape-rendering:geometricPrecision;fill:var(--cs);animation:none linear 31500ms infinite}@keyframes s0{0%,99.68%{transform:translate(0px,-16px)}0.32%{transform:translate(0px,-32px)}0.95%{transform:translate(32px,-32px)}1.9%{transform:translate(32px,16px)}2.22%{transform:translate(48px,16px)}2.86%{transform:translate(48px,48px)}3.49%{transform:translate(80px,48px)}4.13%{transform:translate(80px,80px)}5.08%,13.33%{transform:translate(128px,80px)}5.4%{transform:translate(128px,64px)}5.71%{transform:translate(112px,64px)}7.3%{transform:translate(112px,-16px)}8.25%{transform:translate(160px,-16px)}9.21%{transform:translate(160px,32px)}9.52%{transform:translate(144px,32px)}9.84%{transform:translate(144px,48px)}10.48%,94.92%{transform:translate(176px,48px)}10.79%{transform:translate(176px,64px)}11.11%{transform:translate(192px,64px)}11.43%{transform:translate(192px,80px)}12.38%{transform:translate(144px,80px)}12.7%{transform:translate(144px,96px)}13.02%{transform:translate(128px,96px)}15.56%,16.83%{transform:translate(240px,80px)}15.87%{transform:translate(240px,64px)}16.19%{transform:translate(256px,64px)}16.51%{transform:translate(256px,80px)}17.14%{transform:translate(240px,96px)}17.78%{transform:translate(272px,96px)}19.37%{transform:translate(272px,16px)}19.68%,60.32%{transform:translate(256px,16px)}20%{transform:translate(256px,0px)}20.32%,60.95%{transform:translate(240px,0px)}20.63%{transform:translate(240px,-16px)}24.44%{transform:translate(432px,-16px)}24.76%{transform:translate(432px,0px)}27.62%{transform:translate(576px,0px)}27.94%{transform:translate(576px,16px)}30.16%{transform:translate(464px,16px)}30.48%{transform:translate(464px,32px)}31.11%{transform:translate(432px,32px)}31.43%{transform:translate(432px,48px)}32.06%{transform:translate(464px,48px)}32.38%{transform:translate(464px,64px)}33.02%{transform:translate(496px,64px)}33.33%{transform:translate(496px,48px)}34.6%{transform:translate(560px,48px)}34.92%{transform:translate(560px,64px)}35.24%{transform:translate(576px,64px)}35.56%{transform:translate(576px,80px)}37.14%{transform:translate(656px,80px)}37.46%{transform:translate(656px,64px)}37.78%{transform:translate(672px,64px)}38.1%{transform:translate(672px,48px)}38.41%{transform:translate(688px,48px)}39.37%{transform:translate(688px,96px)}40.63%{transform:translate(752px,96px)}41.59%{transform:translate(752px,48px)}42.86%{transform:translate(816px,48px)}43.17%{transform:translate(816px,64px)}43.49%{transform:translate(800px,64px)}44.76%{transform:translate(800px,0px)}49.84%{transform:translate(544px,0px)}51.43%{transform:translate(544px,80px)}52.38%{transform:translate(496px,80px)}52.7%{transform:translate(496px,96px)}53.33%{transform:translate(464px,96px)}53.65%{transform:translate(464px,80px)}54.92%{transform:translate(400px,80px)}55.24%{transform:translate(400px,96px)}55.56%{transform:translate(416px,96px)}56.51%{transform:translate(416px,48px)}59.68%{transform:translate(256px,48px)}60.63%{transform:translate(240px,16px)}61.59%{transform:translate(272px,0px)}61.9%{transform:translate(272px,-16px)}64.44%{transform:translate(144px,-16px)}65.08%{transform:translate(144px,16px)}65.71%,96.83%{transform:translate(112px,16px)}66.03%{transform:translate(112px,32px)}66.35%{transform:translate(96px,32px)}67.62%{transform:translate(96px,96px)}67.94%{transform:translate(80px,96px)}69.52%{transform:translate(80px,16px)}71.11%,86.98%{transform:translate(0px,16px)}72.06%{transform:translate(0px,64px)}72.38%{transform:translate(16px,64px)}72.7%{transform:translate(16px,80px)}74.6%{transform:translate(112px,80px)}74.92%{transform:translate(112px,96px)}76.51%{transform:translate(192px,96px)}78.41%{transform:translate(192px,0px)}80.32%{transform:translate(96px,0px)}80.63%,97.14%{transform:translate(96px,16px)}81.27%{transform:translate(128px,16px)}81.9%{transform:translate(128px,48px)}83.81%{transform:translate(32px,48px)}84.13%{transform:translate(32px,64px)}84.44%{transform:translate(48px,64px)}85.71%{transform:translate(48px,0px)}86.67%{transform:translate(0px,0px)}91.43%{transform:translate(224px,16px)}93.02%{transform:translate(224px,96px)}93.97%{transform:translate(176px,96px)}96.19%{transform:translate(112px,48px)}97.78%{transform:translate(96px,-16px)}}.s.s0{transform:translate(0px,-16px);animation-name:s0}@keyframes s1{0%,99.68%{transform:translate(16px,-16px)}0.32%{transform:translate(0px,-16px)}0.63%{transform:translate(0px,-32px)}1.27%{transform:translate(32px,-32px)}2.22%{transform:translate(32px,16px)}2.54%{transform:translate(48px,16px)}3.17%{transform:translate(48px,48px)}3.81%{transform:translate(80px,48px)}4.44%{transform:translate(80px,80px)}5.4%,13.65%{transform:translate(128px,80px)}5.71%{transform:translate(128px,64px)}6.03%{transform:translate(112px,64px)}7.62%{transform:translate(112px,-16px)}8.57%{transform:translate(160px,-16px)}9.52%{transform:translate(160px,32px)}9.84%{transform:translate(144px,32px)}10.16%{transform:translate(144px,48px)}10.79%,95.24%{transform:translate(176px,48px)}11.11%{transform:translate(176px,64px)}11.43%{transform:translate(192px,64px)}11.75%{transform:translate(192px,80px)}12.7%{transform:translate(144px,80px)}13.02%{transform:translate(144px,96px)}13.33%{transform:translate(128px,96px)}15.87%,17.14%{transform:translate(240px,80px)}16.19%{transform:translate(240px,64px)}16.51%{transform:translate(256px,64px)}16.83%{transform:translate(256px,80px)}17.46%{transform:translate(240px,96px)}18.1%{transform:translate(272px,96px)}19.68%{transform:translate(272px,16px)}20%,60.63%{transform:translate(256px,16px)}20.32%{transform:translate(256px,0px)}20.63%,61.27%{transform:translate(240px,0px)}20.95%{transform:translate(240px,-16px)}24.76%{transform:translate(432px,-16px)}25.08%{transform:translate(432px,0px)}27.94%{transform:translate(576px,0px)}28.25%{transform:translate(576px,16px)}30.48%{transform:translate(464px,16px)}30.79%{transform:translate(464px,32px)}31.43%{transform:translate(432px,32px)}31.75%{transform:translate(432px,48px)}32.38%{transform:translate(464px,48px)}32.7%{transform:translate(464px,64px)}33.33%{transform:translate(496px,64px)}33.65%{transform:translate(496px,48px)}34.92%{transform:translate(560px,48px)}35.24%{transform:translate(560px,64px)}35.56%{transform:translate(576px,64px)}35.87%{transform:translate(576px,80px)}37.46%{transform:translate(656px,80px)}37.78%{transform:translate(656px,64px)}38.1%{transform:translate(672px,64px)}38.41%{transform:translate(672px,48px)}38.73%{transform:translate(688px,48px)}39.68%{transform:translate(688px,96px)}40.95%{transform:translate(752px,96px)}41.9%{transform:translate(752px,48px)}43.17%{transform:translate(816px,48px)}43.49%{transform:translate(816px,64px)}43.81%{transform:translate(800px,64px)}45.08%{transform:translate(800px,0px)}50.16%{transform:translate(544px,0px)}51.75%{transform:translate(544px,80px)}52.7%{transform:translate(496px,80px)}53.02%{transform:translate(496px,96px)}53.65%{transform:translate(464px,96px)}53.97%{transform:translate(464px,80px)}55.24%{transform:translate(400px,80px)}55.56%{transform:translate(400px,96px)}55.87%{transform:translate(416px,96px)}56.83%{transform:translate(416px,48px)}60%{transform:translate(256px,48px)}60.95%{transform:translate(240px,16px)}61.9%{transform:translate(272px,0px)}62.22%{transform:translate(272px,-16px)}64.76%{transform:translate(144px,-16px)}65.4%{transform:translate(144px,16px)}66.03%,97.14%{transform:translate(112px,16px)}66.35%{transform:translate(112px,32px)}66.67%{transform:translate(96px,32px)}67.94%{transform:translate(96px,96px)}68.25%{transform:translate(80px,96px)}69.84%{transform:translate(80px,16px)}71.43%,87.3%{transform:translate(0px,16px)}72.38%{transform:translate(0px,64px)}72.7%{transform:translate(16px,64px)}73.02%{transform:translate(16px,80px)}74.92%{transform:translate(112px,80px)}75.24%{transform:translate(112px,96px)}76.83%{transform:translate(192px,96px)}78.73%{transform:translate(192px,0px)}80.63%{transform:translate(96px,0px)}80.95%,97.46%{transform:translate(96px,16px)}81.59%{transform:translate(128px,16px)}82.22%{transform:translate(128px,48px)}84.13%{transform:translate(32px,48px)}84.44%{transform:translate(32px,64px)}84.76%{transform:translate(48px,64px)}86.03%{transform:translate(48px,0px)}86.98%{transform:translate(0px,0px)}91.75%{transform:translate(224px,16px)}93.33%{transform:translate(224px,96px)}94.29%{transform:translate(176px,96px)}96.51%{transform:translate(112px,48px)}98.1%{transform:translate(96px,-16px)}}.s.s1{transform:translate(16px,-16px);animation-name:s1}@keyframes s2{0%,99.68%{transform:translate(32px,-16px)}0.63%{transform:translate(0px,-16px)}0.95%{transform:translate(0px,-32px)}1.59%{transform:translate(32px,-32px)}2.54%{transform:translate(32px,16px)}2.86%{transform:translate(48px,16px)}3.49%{transform:translate(48px,48px)}4.13%{transform:translate(80px,48px)}4.76%{transform:translate(80px,80px)}5.71%,13.97%{transform:translate(128px,80px)}6.03%{transform:translate(128px,64px)}6.35%{transform:translate(112px,64px)}7.94%{transform:translate(112px,-16px)}8.89%{transform:translate(160px,-16px)}9.84%{transform:translate(160px,32px)}10.16%{transform:translate(144px,32px)}10.48%{transform:translate(144px,48px)}11.11%,95.56%{transform:translate(176px,48px)}11.43%{transform:translate(176px,64px)}11.75%{transform:translate(192px,64px)}12.06%{transform:translate(192px,80px)}13.02%{transform:translate(144px,80px)}13.33%{transform:translate(144px,96px)}13.65%{transform:translate(128px,96px)}16.19%,17.46%{transform:translate(240px,80px)}16.51%{transform:translate(240px,64px)}16.83%{transform:translate(256px,64px)}17.14%{transform:translate(256px,80px)}17.78%{transform:translate(240px,96px)}18.41%{transform:translate(272px,96px)}20%{transform:translate(272px,16px)}20.32%,60.95%{transform:translate(256px,16px)}20.63%{transform:translate(256px,0px)}20.95%,61.59%{transform:translate(240px,0px)}21.27%{transform:translate(240px,-16px)}25.08%{transform:translate(432px,-16px)}25.4%{transform:translate(432px,0px)}28.25%{transform:translate(576px,0px)}28.57%{transform:translate(576px,16px)}30.79%{transform:translate(464px,16px)}31.11%{transform:translate(464px,32px)}31.75%{transform:translate(432px,32px)}32.06%{transform:translate(432px,48px)}32.7%{transform:translate(464px,48px)}33.02%{transform:translate(464px,64px)}33.65%{transform:translate(496px,64px)}33.97%{transform:translate(496px,48px)}35.24%{transform:translate(560px,48px)}35.56%{transform:translate(560px,64px)}35.87%{transform:translate(576px,64px)}36.19%{transform:translate(576px,80px)}37.78%{transform:translate(656px,80px)}38.1%{transform:translate(656px,64px)}38.41%{transform:translate(672px,64px)}38.73%{transform:translate(672px,48px)}39.05%{transform:translate(688px,48px)}40%{transform:translate(688px,96px)}41.27%{transform:translate(752px,96px)}42.22%{transform:translate(752px,48px)}43.49%{transform:translate(816px,48px)}43.81%{transform:translate(816px,64px)}44.13%{transform:translate(800px,64px)}45.4%{transform:translate(800px,0px)}50.48%{transform:translate(544px,0px)}52.06%{transform:translate(544px,80px)}53.02%{transform:translate(496px,80px)}53.33%{transform:translate(496px,96px)}53.97%{transform:translate(464px,96px)}54.29%{transform:translate(464px,80px)}55.56%{transform:translate(400px,80px)}55.87%{transform:translate(400px,96px)}56.19%{transform:translate(416px,96px)}57.14%{transform:translate(416px,48px)}60.32%{transform:translate(256px,48px)}61.27%{transform:translate(240px,16px)}62.22%{transform:translate(272px,0px)}62.54%{transform:translate(272px,-16px)}65.08%{transform:translate(144px,-16px)}65.71%{transform:translate(144px,16px)}66.35%,97.46%{transform:translate(112px,16px)}66.67%{transform:translate(112px,32px)}66.98%{transform:translate(96px,32px)}68.25%{transform:translate(96px,96px)}68.57%{transform:translate(80px,96px)}70.16%{transform:translate(80px,16px)}71.75%,87.62%{transform:translate(0px,16px)}72.7%{transform:translate(0px,64px)}73.02%{transform:translate(16px,64px)}73.33%{transform:translate(16px,80px)}75.24%{transform:translate(112px,80px)}75.56%{transform:translate(112px,96px)}77.14%{transform:translate(192px,96px)}79.05%{transform:translate(192px,0px)}80.95%{transform:translate(96px,0px)}81.27%,97.78%{transform:translate(96px,16px)}81.9%{transform:translate(128px,16px)}82.54%{transform:translate(128px,48px)}84.44%{transform:translate(32px,48px)}84.76%{transform:translate(32px,64px)}85.08%{transform:translate(48px,64px)}86.35%{transform:translate(48px,0px)}87.3%{transform:translate(0px,0px)}92.06%{transform:translate(224px,16px)}93.65%{transform:translate(224px,96px)}94.6%{transform:translate(176px,96px)}96.83%{transform:translate(112px,48px)}98.41%{transform:translate(96px,-16px)}}.s.s2{transform:translate(32px,-16px);animation-name:s2}@keyframes s3{0%,99.68%{transform:translate(48px,-16px)}0.95%{transform:translate(0px,-16px)}1.27%{transform:translate(0px,-32px)}1.9%{transform:translate(32px,-32px)}2.86%{transform:translate(32px,16px)}3.17%{transform:translate(48px,16px)}3.81%{transform:translate(48px,48px)}4.44%{transform:translate(80px,48px)}5.08%{transform:translate(80px,80px)}6.03%,14.29%{transform:translate(128px,80px)}6.35%{transform:translate(128px,64px)}6.67%{transform:translate(112px,64px)}8.25%{transform:translate(112px,-16px)}9.21%{transform:translate(160px,-16px)}10.16%{transform:translate(160px,32px)}10.48%{transform:translate(144px,32px)}10.79%{transform:translate(144px,48px)}11.43%,95.87%{transform:translate(176px,48px)}11.75%{transform:translate(176px,64px)}12.06%{transform:translate(192px,64px)}12.38%{transform:translate(192px,80px)}13.33%{transform:translate(144px,80px)}13.65%{transform:translate(144px,96px)}13.97%{transform:translate(128px,96px)}16.51%,17.78%{transform:translate(240px,80px)}16.83%{transform:translate(240px,64px)}17.14%{transform:translate(256px,64px)}17.46%{transform:translate(256px,80px)}18.1%{transform:translate(240px,96px)}18.73%{transform:translate(272px,96px)}20.32%{transform:translate(272px,16px)}20.63%,61.27%{transform:translate(256px,16px)}20.95%{transform:translate(256px,0px)}21.27%,61.9%{transform:translate(240px,0px)}21.59%{transform:translate(240px,-16px)}25.4%{transform:translate(432px,-16px)}25.71%{transform:translate(432px,0px)}28.57%{transform:translate(576px,0px)}28.89%{transform:translate(576px,16px)}31.11%{transform:translate(464px,16px)}31.43%{transform:translate(464px,32px)}32.06%{transform:translate(432px,32px)}32.38%{transform:translate(432px,48px)}33.02%{transform:translate(464px,48px)}33.33%{transform:translate(464px,64px)}33.97%{transform:translate(496px,64px)}34.29%{transform:translate(496px,48px)}35.56%{transform:translate(560px,48px)}35.87%{transform:translate(560px,64px)}36.19%{transform:translate(576px,64px)}36.51%{transform:translate(576px,80px)}38.1%{transform:translate(656px,80px)}38.41%{transform:translate(656px,64px)}38.73%{transform:translate(672px,64px)}39.05%{transform:translate(672px,48px)}39.37%{transform:translate(688px,48px)}40.32%{transform:translate(688px,96px)}41.59%{transform:translate(752px,96px)}42.54%{transform:translate(752px,48px)}43.81%{transform:translate(816px,48px)}44.13%{transform:translate(816px,64px)}44.44%{transform:translate(800px,64px)}45.71%{transform:translate(800px,0px)}50.79%{transform:translate(544px,0px)}52.38%{transform:translate(544px,80px)}53.33%{transform:translate(496px,80px)}53.65%{transform:translate(496px,96px)}54.29%{transform:translate(464px,96px)}54.6%{transform:translate(464px,80px)}55.87%{transform:translate(400px,80px)}56.19%{transform:translate(400px,96px)}56.51%{transform:translate(416px,96px)}57.46%{transform:translate(416px,48px)}60.63%{transform:translate(256px,48px)}61.59%{transform:translate(240px,16px)}62.54%{transform:translate(272px,0px)}62.86%{transform:translate(272px,-16px)}65.4%{transform:translate(144px,-16px)}66.03%{transform:translate(144px,16px)}66.67%,97.78%{transform:translate(112px,16px)}66.98%{transform:translate(112px,32px)}67.3%{transform:translate(96px,32px)}68.57%{transform:translate(96px,96px)}68.89%{transform:translate(80px,96px)}70.48%{transform:translate(80px,16px)}72.06%,87.94%{transform:translate(0px,16px)}73.02%{transform:translate(0px,64px)}73.33%{transform:translate(16px,64px)}73.65%{transform:translate(16px,80px)}75.56%{transform:translate(112px,80px)}75.87%{transform:translate(112px,96px)}77.46%{transform:translate(192px,96px)}79.37%{transform:translate(192px,0px)}81.27%{transform:translate(96px,0px)}81.59%,98.1%{transform:translate(96px,16px)}82.22%{transform:translate(128px,16px)}82.86%{transform:translate(128px,48px)}84.76%{transform:translate(32px,48px)}85.08%{transform:translate(32px,64px)}85.4%{transform:translate(48px,64px)}86.67%{transform:translate(48px,0px)}87.62%{transform:translate(0px,0px)}92.38%{transform:translate(224px,16px)}93.97%{transform:translate(224px,96px)}94.92%{transform:translate(176px,96px)}97.14%{transform:translate(112px,48px)}98.73%{transform:translate(96px,-16px)}}.s.s3{transform:translate(48px,-16px);animation-name:s3}</style><rect class="c c0" x="2" y="2" rx="2" ry="2"/><rect class="c c1" x="2" y="18" rx="2" ry="2"/><rect class="c" x="2" y="34" rx="2" ry="2"/><rect class="c" x="2" y="50" rx="2" ry="2"/><rect class="c c2" x="2" y="66" rx="2" ry="2"/><rect class="c" x="2" y="82" rx="2" ry="2"/><rect class="c" x="2" y="98" rx="2" ry="2"/><rect class="c" x="18" y="2" rx="2" ry="2"/><rect class="c" x="18" y="18" rx="2" ry="2"/><rect class="c" x="18" y="34" rx="2" ry="2"/><rect class="c" x="18" y="50" rx="2" ry="2"/><rect class="c" x="18" y="66" rx="2" ry="2"/><rect class="c" x="18" y="82" rx="2" ry="2"/><rect class="c" x="18" y="98" rx="2" ry="2"/><rect class="c" x="34" y="2" rx="2" ry="2"/><rect class="c" x="34" y="18" rx="2" ry="2"/><rect class="c" x="34" y="34" rx="2" ry="2"/><rect class="c" x="34" y="50" rx="2" ry="2"/><rect class="c c3" x="34" y="66" rx="2" ry="2"/><rect class="c" x="34" y="82" rx="2" ry="2"/><rect class="c" x="34" y="98" rx="2" ry="2"/><rect class="c c4" x="50" y="2" rx="2" ry="2"/><rect class="c c5" x="50" y="18" rx="2" ry="2"/><rect class="c" x="50" y="34" rx="2" ry="2"/><rect class="c c6" x="50" y="50" rx="2" ry="2"/><rect class="c" x="50" y="66" rx="2" ry="2"/><rect class="c" x="50" y="82" rx="2" ry="2"/><rect class="c" x="50" y="98" rx="2" ry="2"/><rect class="c" x="66" y="2" rx="2" ry="2"/><rect class="c" x="66" y="18" rx="2" ry="2"/><rect class="c" x="66" y="34" rx="2" ry="2"/><rect class="c" x="66" y="50" rx="2" ry="2"/><rect class="c" x="66" y="66" rx="2" ry="2"/><rect class="c" x="66" y="82" rx="2" ry="2"/><rect class="c" x="66" y="98" rx="2" ry="2"/><rect class="c" x="82" y="2" rx="2" ry="2"/><rect class="c" x="82" y="18" rx="2" ry="2"/><rect class="c" x="82" y="34" rx="2" ry="2"/><rect class="c" x="82" y="50" rx="2" ry="2"/><rect class="c c7" x="82" y="66" rx="2" ry="2"/><rect class="c c8" x="82" y="82" rx="2" ry="2"/><rect class="c" x="82" y="98" rx="2" ry="2"/><rect class="c" x="98" y="2" rx="2" ry="2"/><rect class="c c9" x="98" y="18" rx="2" ry="2"/><rect class="c" x="98" y="34" rx="2" ry="2"/><rect class="c ca" x="98" y="50" rx="2" ry="2"/><rect class="c cb" x="98" y="66" rx="2" ry="2"/><rect class="c" x="98" y="82" rx="2" ry="2"/><rect class="c cc" x="98" y="98" rx="2" ry="2"/><rect class="c cd" x="114" y="2" rx="2" ry="2"/><rect class="c ce" x="114" y="18" rx="2" ry="2"/><rect class="c cf" x="114" y="34" rx="2" ry="2"/><rect class="c cg" x="114" y="50" rx="2" ry="2"/><rect class="c ch" x="114" y="66" rx="2" ry="2"/><rect class="c" x="114" y="82" rx="2" ry="2"/><rect class="c ci" x="114" y="98" rx="2" ry="2"/><rect class="c cj" x="130" y="2" rx="2" ry="2"/><rect class="c ck" x="130" y="18" rx="2" ry="2"/><rect class="c" x="130" y="34" rx="2" ry="2"/><rect class="c cl" x="130" y="50" rx="2" ry="2"/><rect class="c cm" x="130" y="66" rx="2" ry="2"/><rect class="c cn" x="130" y="82" rx="2" ry="2"/><rect class="c co" x="130" y="98" rx="2" ry="2"/><rect class="c cp" x="146" y="2" rx="2" ry="2"/><rect class="c cq" x="146" y="18" rx="2" ry="2"/><rect class="c cr" x="146" y="34" rx="2" ry="2"/><rect class="c cs" x="146" y="50" rx="2" ry="2"/><rect class="c" x="146" y="66" rx="2" ry="2"/><rect class="c" x="146" y="82" rx="2" ry="2"/><rect class="c ct" x="146" y="98" rx="2" ry="2"/><rect class="c cu" x="162" y="2" rx="2" ry="2"/><rect class="c cv" x="162" y="18" rx="2" ry="2"/><rect class="c cw" x="162" y="34" rx="2" ry="2"/><rect class="c" x="162" y="50" rx="2" ry="2"/><rect class="c" x="162" y="66" rx="2" ry="2"/><rect class="c" x="162" y="82" rx="2" ry="2"/><rect class="c" x="162" y="98" rx="2" ry="2"/><rect class="c" x="178" y="2" rx="2" ry="2"/><rect class="c" x="178" y="18" rx="2" ry="2"/><rect class="c" x="178" y="34" rx="2" ry="2"/><rect class="c cx" x="178" y="50" rx="2" ry="2"/><rect class="c cy" x="178" y="66" rx="2" ry="2"/><rect class="c cz" x="178" y="82" rx="2" ry="2"/><rect class="c" x="178" y="98" rx="2" ry="2"/><rect class="c" x="194" y="2" rx="2" ry="2"/><rect class="c" x="194" y="18" rx="2" ry="2"/><rect class="c" x="194" y="34" rx="2" ry="2"/><rect class="c" x="194" y="50" rx="2" ry="2"/><rect class="c c10" x="194" y="66" rx="2" ry="2"/><rect class="c" x="194" y="82" rx="2" ry="2"/><rect class="c c11" x="194" y="98" rx="2" ry="2"/><rect class="c" x="210" y="2" rx="2" ry="2"/><rect class="c" x="210" y="18" rx="2" ry="2"/><rect class="c" x="210" y="34" rx="2" ry="2"/><rect class="c" x="210" y="50" rx="2" ry="2"/><rect class="c" x="210" y="66" rx="2" ry="2"/><rect class="c" x="210" y="82" rx="2" ry="2"/><rect class="c" x="210" y="98" rx="2" ry="2"/><rect class="c" x="226" y="2" rx="2" ry="2"/><rect class="c c12" x="226" y="18" rx="2" ry="2"/><rect class="c" x="226" y="34" rx="2" ry="2"/><rect class="c" x="226" y="50" rx="2" ry="2"/><rect class="c" x="226" y="66" rx="2" ry="2"/><rect class="c c13" x="226" y="82" rx="2" ry="2"/><rect class="c c14" x="226" y="98" rx="2" ry="2"/><rect class="c c15" x="242" y="2" rx="2" ry="2"/><rect class="c c16" x="242" y="18" rx="2" ry="2"/><rect class="c" x="242" y="34" rx="2" ry="2"/><rect class="c" x="242" y="50" rx="2" ry="2"/><rect class="c c17" x="242" y="66" rx="2" ry="2"/><rect class="c c18" x="242" y="82" rx="2" ry="2"/><rect class="c c19" x="242" y="98" rx="2" ry="2"/><rect class="c c1a" x="258" y="2" rx="2" ry="2"/><rect class="c" x="258" y="18" rx="2" ry="2"/><rect class="c" x="258" y="34" rx="2" ry="2"/><rect class="c c1b" x="258" y="50" rx="2" ry="2"/><rect class="c c1c" x="258" y="66" rx="2" ry="2"/><rect class="c" x="258" y="82" rx="2" ry="2"/><rect class="c" x="258" y="98" rx="2" ry="2"/><rect class="c c1d" x="274" y="2" rx="2" ry="2"/><rect class="c" x="274" y="18" rx="2" ry="2"/><rect class="c" x="274" y="34" rx="2" ry="2"/><rect class="c" x="274" y="50" rx="2" ry="2"/><rect class="c" x="274" y="66" rx="2" ry="2"/><rect class="c" x="274" y="82" rx="2" ry="2"/><rect class="c" x="274" y="98" rx="2" ry="2"/><rect class="c" x="290" y="2" rx="2" ry="2"/><rect class="c" x="290" y="18" rx="2" ry="2"/><rect class="c" x="290" y="34" rx="2" ry="2"/><rect class="c" x="290" y="50" rx="2" ry="2"/><rect class="c" x="290" y="66" rx="2" ry="2"/><rect class="c" x="290" y="82" rx="2" ry="2"/><rect class="c" x="290" y="98" rx="2" ry="2"/><rect class="c" x="306" y="2" rx="2" ry="2"/><rect class="c" x="306" y="18" rx="2" ry="2"/><rect class="c" x="306" y="34" rx="2" ry="2"/><rect class="c" x="306" y="50" rx="2" ry="2"/><rect class="c" x="306" y="66" rx="2" ry="2"/><rect class="c" x="306" y="82" rx="2" ry="2"/><rect class="c" x="306" y="98" rx="2" ry="2"/><rect class="c" x="322" y="2" rx="2" ry="2"/><rect class="c" x="322" y="18" rx="2" ry="2"/><rect class="c" x="322" y="34" rx="2" ry="2"/><rect class="c" x="322" y="50" rx="2" ry="2"/><rect class="c" x="322" y="66" rx="2" ry="2"/><rect class="c" x="322" y="82" rx="2" ry="2"/><rect class="c" x="322" y="98" rx="2" ry="2"/><rect class="c" x="338" y="2" rx="2" ry="2"/><rect class="c" x="338" y="18" rx="2" ry="2"/><rect class="c" x="338" y="34" rx="2" ry="2"/><rect class="c" x="338" y="50" rx="2" ry="2"/><rect class="c" x="338" y="66" rx="2" ry="2"/><rect class="c" x="338" y="82" rx="2" ry="2"/><rect class="c" x="338" y="98" rx="2" ry="2"/><rect class="c" x="354" y="2" rx="2" ry="2"/><rect class="c" x="354" y="18" rx="2" ry="2"/><rect class="c" x="354" y="34" rx="2" ry="2"/><rect class="c" x="354" y="50" rx="2" ry="2"/><rect class="c" x="354" y="66" rx="2" ry="2"/><rect class="c" x="354" y="82" rx="2" ry="2"/><rect class="c" x="354" y="98" rx="2" ry="2"/><rect class="c" x="370" y="2" rx="2" ry="2"/><rect class="c" x="370" y="18" rx="2" ry="2"/><rect class="c" x="370" y="34" rx="2" ry="2"/><rect class="c" x="370" y="50" rx="2" ry="2"/><rect class="c" x="370" y="66" rx="2" ry="2"/><rect class="c" x="370" y="82" rx="2" ry="2"/><rect class="c" x="370" y="98" rx="2" ry="2"/><rect class="c" x="386" y="2" rx="2" ry="2"/><rect class="c" x="386" y="18" rx="2" ry="2"/><rect class="c" x="386" y="34" rx="2" ry="2"/><rect class="c" x="386" y="50" rx="2" ry="2"/><rect class="c" x="386" y="66" rx="2" ry="2"/><rect class="c" x="386" y="82" rx="2" ry="2"/><rect class="c" x="386" y="98" rx="2" ry="2"/><rect class="c" x="402" y="2" rx="2" ry="2"/><rect class="c" x="402" y="18" rx="2" ry="2"/><rect class="c" x="402" y="34" rx="2" ry="2"/><rect class="c" x="402" y="50" rx="2" ry="2"/><rect class="c" x="402" y="66" rx="2" ry="2"/><rect class="c c1e" x="402" y="82" rx="2" ry="2"/><rect class="c" x="402" y="98" rx="2" ry="2"/><rect class="c" x="418" y="2" rx="2" ry="2"/><rect class="c" x="418" y="18" rx="2" ry="2"/><rect class="c" x="418" y="34" rx="2" ry="2"/><rect class="c" x="418" y="50" rx="2" ry="2"/><rect class="c" x="418" y="66" rx="2" ry="2"/><rect class="c c1f" x="418" y="82" rx="2" ry="2"/><rect class="c c1g" x="418" y="98" rx="2" ry="2"/><rect class="c c1h" x="434" y="2" rx="2" ry="2"/><rect class="c" x="434" y="18" rx="2" ry="2"/><rect class="c c1i" x="434" y="34" rx="2" ry="2"/><rect class="c" x="434" y="50" rx="2" ry="2"/><rect class="c" x="434" y="66" rx="2" ry="2"/><rect class="c" x="434" y="82" rx="2" ry="2"/><rect class="c" x="434" y="98" rx="2" ry="2"/><rect class="c" x="450" y="2" rx="2" ry="2"/><rect class="c" x="450" y="18" rx="2" ry="2"/><rect class="c" x="450" y="34" rx="2" ry="2"/><rect class="c c1j" x="450" y="50" rx="2" ry="2"/><rect class="c" x="450" y="66" rx="2" ry="2"/><rect class="c c1k" x="450" y="82" rx="2" ry="2"/><rect class="c" x="450" y="98" rx="2" ry="2"/><rect class="c c1l" x="466" y="2" rx="2" ry="2"/><rect class="c c1m" x="466" y="18" rx="2" ry="2"/><rect class="c c1n" x="466" y="34" rx="2" ry="2"/><rect class="c" x="466" y="50" rx="2" ry="2"/><rect class="c c1o" x="466" y="66" rx="2" ry="2"/><rect class="c" x="466" y="82" rx="2" ry="2"/><rect class="c c1p" x="466" y="98" rx="2" ry="2"/><rect class="c c1q" x="482" y="2" rx="2" ry="2"/><rect class="c" x="482" y="18" rx="2" ry="2"/><rect class="c" x="482" y="34" rx="2" ry="2"/><rect class="c" x="482" y="50" rx="2" ry="2"/><rect class="c c1r" x="482" y="66" rx="2" ry="2"/><rect class="c" x="482" y="82" rx="2" ry="2"/><rect class="c" x="482" y="98" rx="2" ry="2"/><rect class="c c1s" x="498" y="2" rx="2" ry="2"/><rect class="c c1t" x="498" y="18" rx="2" ry="2"/><rect class="c" x="498" y="34" rx="2" ry="2"/><rect class="c c1u" x="498" y="50" rx="2" ry="2"/><rect class="c" x="498" y="66" rx="2" ry="2"/><rect class="c c1v" x="498" y="82" rx="2" ry="2"/><rect class="c c1w" x="498" y="98" rx="2" ry="2"/><rect class="c c1x" x="514" y="2" rx="2" ry="2"/><rect class="c c1y" x="514" y="18" rx="2" ry="2"/><rect class="c" x="514" y="34" rx="2" ry="2"/><rect class="c" x="514" y="50" rx="2" ry="2"/><rect class="c" x="514" y="66" rx="2" ry="2"/><rect class="c" x="514" y="82" rx="2" ry="2"/><rect class="c" x="514" y="98" rx="2" ry="2"/><rect class="c c1z" x="530" y="2" rx="2" ry="2"/><rect class="c c20" x="530" y="18" rx="2" ry="2"/><rect class="c" x="530" y="34" rx="2" ry="2"/><rect class="c" x="530" y="50" rx="2" ry="2"/><rect class="c" x="530" y="66" rx="2" ry="2"/><rect class="c" x="530" y="82" rx="2" ry="2"/><rect class="c" x="530" y="98" rx="2" ry="2"/><rect class="c c21" x="546" y="2" rx="2" ry="2"/><rect class="c" x="546" y="18" rx="2" ry="2"/><rect class="c c22" x="546" y="34" rx="2" ry="2"/><rect class="c c23" x="546" y="50" rx="2" ry="2"/><rect class="c c24" x="546" y="66" rx="2" ry="2"/><rect class="c c25" x="546" y="82" rx="2" ry="2"/><rect class="c" x="546" y="98" rx="2" ry="2"/><rect class="c" x="562" y="2" rx="2" ry="2"/><rect class="c c26" x="562" y="18" rx="2" ry="2"/><rect class="c" x="562" y="34" rx="2" ry="2"/><rect class="c c27" x="562" y="50" rx="2" ry="2"/><rect class="c c28" x="562" y="66" rx="2" ry="2"/><rect class="c" x="562" y="82" rx="2" ry="2"/><rect class="c" x="562" y="98" rx="2" ry="2"/><rect class="c c29" x="578" y="2" rx="2" ry="2"/><rect class="c" x="578" y="18" rx="2" ry="2"/><rect class="c" x="578" y="34" rx="2" ry="2"/><rect class="c" x="578" y="50" rx="2" ry="2"/><rect class="c c2a" x="578" y="66" rx="2" ry="2"/><rect class="c c2b" x="578" y="82" rx="2" ry="2"/><rect class="c" x="578" y="98" rx="2" ry="2"/><rect class="c" x="594" y="2" rx="2" ry="2"/><rect class="c" x="594" y="18" rx="2" ry="2"/><rect class="c" x="594" y="34" rx="2" ry="2"/><rect class="c" x="594" y="50" rx="2" ry="2"/><rect class="c" x="594" y="66" rx="2" ry="2"/><rect class="c" x="594" y="82" rx="2" ry="2"/><rect class="c" x="594" y="98" rx="2" ry="2"/><rect class="c" x="610" y="2" rx="2" ry="2"/><rect class="c" x="610" y="18" rx="2" ry="2"/><rect class="c" x="610" y="34" rx="2" ry="2"/><rect class="c" x="610" y="50" rx="2" ry="2"/><rect class="c" x="610" y="66" rx="2" ry="2"/><rect class="c c2c" x="610" y="82" rx="2" ry="2"/><rect class="c" x="610" y="98" rx="2" ry="2"/><rect class="c c2d" x="626" y="2" rx="2" ry="2"/><rect class="c" x="626" y="18" rx="2" ry="2"/><rect class="c" x="626" y="34" rx="2" ry="2"/><rect class="c" x="626" y="50" rx="2" ry="2"/><rect class="c" x="626" y="66" rx="2" ry="2"/><rect class="c" x="626" y="82" rx="2" ry="2"/><rect class="c" x="626" y="98" rx="2" ry="2"/><rect class="c" x="642" y="2" rx="2" ry="2"/><rect class="c" x="642" y="18" rx="2" ry="2"/><rect class="c" x="642" y="34" rx="2" ry="2"/><rect class="c" x="642" y="50" rx="2" ry="2"/><rect class="c" x="642" y="66" rx="2" ry="2"/><rect class="c" x="642" y="82" rx="2" ry="2"/><rect class="c" x="642" y="98" rx="2" ry="2"/><rect class="c c2e" x="658" y="2" rx="2" ry="2"/><rect class="c" x="658" y="18" rx="2" ry="2"/><rect class="c" x="658" y="34" rx="2" ry="2"/><rect class="c" x="658" y="50" rx="2" ry="2"/><rect class="c c2f" x="658" y="66" rx="2" ry="2"/><rect class="c" x="658" y="82" rx="2" ry="2"/><rect class="c" x="658" y="98" rx="2" ry="2"/><rect class="c" x="674" y="2" rx="2" ry="2"/><rect class="c" x="674" y="18" rx="2" ry="2"/><rect class="c" x="674" y="34" rx="2" ry="2"/><rect class="c c2g" x="674" y="50" rx="2" ry="2"/><rect class="c" x="674" y="66" rx="2" ry="2"/><rect class="c" x="674" y="82" rx="2" ry="2"/><rect class="c" x="674" y="98" rx="2" ry="2"/><rect class="c" x="690" y="2" rx="2" ry="2"/><rect class="c" x="690" y="18" rx="2" ry="2"/><rect class="c" x="690" y="34" rx="2" ry="2"/><rect class="c c2h" x="690" y="50" rx="2" ry="2"/><rect class="c" x="690" y="66" rx="2" ry="2"/><rect class="c c2i" x="690" y="82" rx="2" ry="2"/><rect class="c c2j" x="690" y="98" rx="2" ry="2"/><rect class="c c2k" x="706" y="2" rx="2" ry="2"/><rect class="c" x="706" y="18" rx="2" ry="2"/><rect class="c" x="706" y="34" rx="2" ry="2"/><rect class="c" x="706" y="50" rx="2" ry="2"/><rect class="c" x="706" y="66" rx="2" ry="2"/><rect class="c" x="706" y="82" rx="2" ry="2"/><rect class="c" x="706" y="98" rx="2" ry="2"/><rect class="c c2l" x="722" y="2" rx="2" ry="2"/><rect class="c" x="722" y="18" rx="2" ry="2"/><rect class="c" x="722" y="34" rx="2" ry="2"/><rect class="c" x="722" y="50" rx="2" ry="2"/><rect class="c" x="722" y="66" rx="2" ry="2"/><rect class="c" x="722" y="82" rx="2" ry="2"/><rect class="c" x="722" y="98" rx="2" ry="2"/><rect class="c" x="738" y="2" rx="2" ry="2"/><rect class="c" x="738" y="18" rx="2" ry="2"/><rect class="c" x="738" y="34" rx="2" ry="2"/><rect class="c" x="738" y="50" rx="2" ry="2"/><rect class="c" x="738" y="66" rx="2" ry="2"/><rect class="c" x="738" y="82" rx="2" ry="2"/><rect class="c" x="738" y="98" rx="2" ry="2"/><rect class="c" x="754" y="2" rx="2" ry="2"/><rect class="c" x="754" y="18" rx="2" ry="2"/><rect class="c" x="754" y="34" rx="2" ry="2"/><rect class="c c2m" x="754" y="50" rx="2" ry="2"/><rect class="c" x="754" y="66" rx="2" ry="2"/><rect class="c" x="754" y="82" rx="2" ry="2"/><rect class="c" x="754" y="98" rx="2" ry="2"/><rect class="c" x="770" y="2" rx="2" ry="2"/><rect class="c" x="770" y="18" rx="2" ry="2"/><rect class="c" x="770" y="34" rx="2" ry="2"/><rect class="c" x="770" y="50" rx="2" ry="2"/><rect class="c" x="770" y="66" rx="2" ry="2"/><rect class="c" x="770" y="82" rx="2" ry="2"/><rect class="c" x="770" y="98" rx="2" ry="2"/><rect class="c c2n" x="786" y="2" rx="2" ry="2"/><rect class="c" x="786" y="18" rx="2" ry="2"/><rect class="c" x="786" y="34" rx="2" ry="2"/><rect class="c" x="786" y="50" rx="2" ry="2"/><rect class="c" x="786" y="66" rx="2" ry="2"/><rect class="c" x="786" y="82" rx="2" ry="2"/><rect class="c" x="786" y="98" rx="2" ry="2"/><rect class="c" x="802" y="2" rx="2" ry="2"/><rect class="c" x="802" y="18" rx="2" ry="2"/><rect class="c" x="802" y="34" rx="2" ry="2"/><rect class="c" x="802" y="50" rx="2" ry="2"/><rect class="c" x="802" y="66" rx="2" ry="2"/><rect class="c" x="802" y="82" rx="2" ry="2"/><rect class="c" x="802" y="98" rx="2" ry="2"/><rect class="c" x="818" y="2" rx="2" ry="2"/><rect class="c" x="818" y="18" rx="2" ry="2"/><rect class="c" x="818" y="34" rx="2" ry="2"/><rect class="c" x="818" y="50" rx="2" ry="2"/><rect class="c c2o" x="818" y="66" rx="2" ry="2"/><rect class="c" x="818" y="82" rx="2" ry="2"/><rect class="c" x="818" y="98" rx="2" ry="2"/><rect class="c" x="834" y="2" rx="2" ry="2"/><rect class="c" x="834" y="18" rx="2" ry="2"/><rect class="c" x="834" y="34" rx="2" ry="2"/><rect class="c" x="834" y="50" rx="2" ry="2"/><rect class="c" x="834" y="66" rx="2" ry="2"/><rect class="u u0" height="12" width="665.0" x="0.0" y="144"/><rect class="u u1" height="12" width="88.0" x="664.4" y="144"/><rect class="u u2" height="12" width="35.6" x="751.8" y="144"/><rect class="u u3" height="12" width="61.8" x="786.8" y="144"/><rect class="s s0" x="0.8" y="0.8" width="14.4" height="14.4" rx="4.5" ry="4.5"/><rect class="s s1" x="1.8" y="1.8" width="12.3" height="12.3" rx="4.1" ry="4.1"/><rect class="s s2" x="2.6" y="2.6" width="10.8" height="10.8" rx="3.6" ry="3.6"/><rect class="s s3" x="3.0" y="3.0" width="9.9" height="9.9" rx="3.3" ry="3.3"/></svg>